{"title":"Alpha Dog 2006 BRRip 480p x264 AAC - VYTO [P2PDL]","uid":8928932,"size":396472672,"categoryP":"video","categoryS":"movies","magnet":"?xt=urn:btih:4d42ae963cfdd28fb9abe74c3422852dd21c214b&amp;dn=Alpha+Dog+2006+BRRip+480p+x264+AAC+-+VYTO+%5BP2PDL%5D&amp;tr=udp%3A%2F%2Ftracker.openbittorrent.com%3A80&amp;tr=udp%3A%2F%2Fopen.demonii.com%3A1337&amp;tr=udp%3A%2F%2Ftracker.coppersurfer.tk%3A6969&amp;tr=udp%3A%2F%2Fexodus.desync.com%3A6969","seeders":5,"leechers":1,"uploader":"ValidusVyto","files":-1,"time":1379427647,"description":"_______ Visit us at our Semi Public Bittorrent Community ________\n  &lt;a href=&quot;\nhttp://p2pdl.com&quot; rel=&quot;nofollow&quot; target=&quot;_NEW&quot;&gt;\nhttp://p2pdl.com&lt;/a&gt;  _____________________________ &lt;a href=&quot; http://p2pdl.com&quot; rel=&quot;nofollow&quot; target=&quot;_NEW&quot;&gt; http://p2pdl.com&lt;/a&gt;\n\n\nAlpha Dog 2006 BRRip 480p x264 AAC - VYTO\n\n\nGenre: Animation\nPlot: A drama based on the life of Jesse James Hollywood, \na drug dealer who became one of the youngest men \never to be on the FBI's most wanted list.\nDirector: Nick Cassavetes\nStars:  Emile Hirsch, Justin Timberlake, Anton Yelchin\n\nInfo: &lt;a href=&quot;\nhttp://www.imdb.com/title/tt0426883/&quot; rel=&quot;nofollow&quot; target=&quot;_NEW&quot;&gt;\nhttp://www.imdb.com/title/tt0426883/&lt;/a&gt;\n\nGeneral\nFormat                         : MPEG-4\nFile size                      : 372 MiB\nDuration                       : 1h 57mn\nOverall bit rate mode          : Variable\nOverall bit rate               : 442 Kbps\n\nVideo\nFormat                         : AVC\nBit rate                       : 399 Kbps\nWidth                          : 720 pixels\nHeight                         : 304 pixels\nDisplay aspect ratio           : 2.35:1\nFrame rate mode                : Constant\nFrame rate                     : 23.976 fps\nBit depth                      : 10 bits\nStream size                    : 336 MiB (90%)\nWriting library                : x264 core 138 r2358 9e941d1\n\nAudio\nFormat                         : AAC\nBit rate                       : 40.0 Kbps\nChannel(s)                     : 2 channels\nChannel positions              : Front: L R\nSampling rate                  : 48.0 KHz / 24.0 KHz\nStream size                    : 33.7 MiB (9%)\n\n\n\nSubtitle                       : Yes (English)\n\nSource                         : 720p.BluRay.DTS.x264-[hdmkv]\n &lt;a href=&quot;\nhttp://ultraimg.com/images/C2VO3.png&quot; rel=&quot;nofollow&quot; target=&quot;_NEW&quot;&gt;\nhttp://ultraimg.com/images/C2VO3.png&lt;/a&gt; &lt;a href=&quot;\nhttp://ultraimg.com/images/G6UO8.png&quot; rel=&quot;nofollow&quot; target=&quot;_NEW&quot;&gt;\nhttp://ultraimg.com/images/G6UO8.png&lt;/a&gt; &lt;a href=&quot;\nhttp://ultraimg.com/images/9qLwE.png&quot; rel=&quot;nofollow&quot; target=&quot;_NEW&quot;&gt;\nhttp://ultraimg.com/images/9qLwE.png&lt;/a&gt; &lt;a href=&quot;\nhttp://ultraimg.com/images/q8KzI.png&quot; rel=&quot;nofollow&quot; target=&quot;_NEW&quot;&gt;\nhttp://ultraimg.com/images/q8KzI.png&lt;/a&gt; &lt;a href=&quot;\nhttp://ultraimg.com/images/NRtx.png&quot; rel=&quot;nofollow&quot; target=&quot;_NEW&quot;&gt;\nhttp://ultraimg.com/images/NRtx.png&lt;/a&gt; &lt;a href=&quot;\nhttp://ultraimg.com/images/1LF0.png&quot; rel=&quot;nofollow&quot; target=&quot;_NEW&quot;&gt;\nhttp://ultraimg.com/images/1LF0.png&lt;/a&gt; &lt;a href=&quot;\nhttp://ultraimg.com/images/5hgq1.png&quot; rel=&quot;nofollow&quot; target=&quot;_NEW&quot;&gt;\nhttp://ultraimg.com/images/5hgq1.png&lt;/a&gt; &lt;a href=&quot;\nhttp://ultraimg.com/images/GVezM.png&quot; rel=&quot;nofollow&quot; target=&quot;_NEW&quot;&gt;\nhttp://ultraimg.com/images/GVezM.png&lt;/a&gt; &lt;a href=&quot;\nhttp://ultraimg.com/images/5Qj6T.png&quot; rel=&quot;nofollow&quot; target=&quot;_NEW&quot;&gt;\nhttp://ultraimg.com/images/5Qj6T.png&lt;/a&gt;\n\n----------------------------------------------------------------------------------------------------\n\n\nEncoded using revolutionary 10bit encoding, which enables us to provide you more crispier \nand sharper images at small sizes, just make sure you follow our instructions without a fault.\nRecommend to you to use latest version of VLC player. Install K-Lite Codec Pack or shark007 codecs\nin case of any kind of problem in playback (For non-VLC Media Player users). Alternatively, install\nCore AVC codecs, the fastest decoder that there is coupled with Community Center Codec Pack and play\non Windows Media Player Classic. Check sample to be sure.\nEnjoy!\n\nEncoder Notes:Looking For Early Access To Anything You Can Provide DVDScr, R5, DVDR, BluRay, Direct\nAudio, Music Releases and Seedboxes. We require dedicated servers, so as to do more \nand fast releases of movies.\nIf You Got anything to offer please contact us at &quot;&lt;a class=&quot;__cf_email__&quot; href=&quot;/cdn-cgi/l/email-protection&quot; data-cfemail=&quot;0e7e7c694e667b7d66206d6163&quot;&gt;[email&amp;#160;protected]&lt;/a&gt;&lt;script cf-hash='f9e31' type=&quot;text/javascript&quot;&gt;\n/* &lt;![CDATA[ */!function(){try{var t=&quot;currentScript&quot;in document?document.currentScript:function(){for(var t=document.getElementsByTagName(&quot;script&quot;),e=t.length;e--;)if(t[e].getAttribute(&quot;cf-hash&quot;))return t[e]}();if(t&amp;&amp;t.previousSibling){var e,r,n,i,c=t.previousSibling,a=c.getAttribute(&quot;data-cfemail&quot;);if(a){for(e=&quot;&quot;,r=parseInt(a.substr(0,2),16),n=2;a.length-n;n+=2)i=parseInt(a.substr(n,2),16)^r,e+=String.fromCharCode(i);e=document.createTextNode(e),c.parentNode.replaceChild(e,c)}}}catch(u){}}();/* ]]&gt; */&lt;/script&gt;&quot;.\n\nFacebook Fan Page:  \nSearch P2PDL on FB and hit like!!!\n\nFor more of our team uploads visit @                                                  &lt;a href=&quot;\nhttp://thepiratebay.se/user/vitamin_x&quot; rel=&quot;nofollow&quot; target=&quot;_NEW&quot;&gt;\nhttp://thepiratebay.se/user/vitamin_x&lt;/a&gt;\t","torrent":{"xt":"urn:btih:4d42ae963cfdd28fb9abe74c3422852dd21c214b","amp;dn":"Alpha+Dog+2006+BRRip+480p+x264+AAC+-+VYTO+%5BP2PDL%5D","amp;tr":["udp%3A%2F%2Ftracker.openbittorrent.com%3A80","udp%3A%2F%2Fopen.demonii.com%3A1337","udp%3A%2F%2Ftracker.coppersurfer.tk%3A6969","udp%3A%2F%2Fexodus.desync.com%3A6969"],"infoHash":"4d42ae963cfdd28fb9abe74c3422852dd21c214b","infoHashBuffer":{"type":"Buffer","data":[77,66,174,150,60,253,210,143,185,171,231,76,52,34,133,45,210,28,33,75]},"announce":[],"urlList":[]}}